# xmcd
#
# Track frame offsets:
#	150
#	19424
#	30050
#	55368
#	67643
#	82686
#	122533
#
# Disc length: 1777 seconds
#
# Revision: 1
# Processed by: cddbd v1.4PL0 Copyright (c) Steve Scherf et al.
# Submitted via: CDmax 1.9
#
DISCID=4206ef07
DTITLE=Stevie Ray Vaughan and Double Trouble - New In Step
DYEAR=2002
DGENRE=Blues
TTITLE0=The House Is Rockin'
TTITLE1=Leave My Girl Alone
TTITLE2=Travis Walk (Instrumental)
TTITLE3=Wall Of Denial
TTITLE4=Scratch-N-Shiff
TTITLE5=Love Me Darlin'
TTITLE6=Riviera Paradise
EXTD=
EXTT0=
EXTT1=
EXTT2=
EXTT3=
EXTT4=
EXTT5=
EXTT6=
PLAYORDER=
